<svg id="visual" viewBox="0 0 1980 1080" width="1980" height="1080" xmlns="http://www.w3.org/2000/svg" xmlns:xlink="http://www.w3.org/1999/xlink" version="1.1"><rect x="0" y="0" width="1980" height="1080" fill="#001220"></rect><path d="M0 780L41.3 761C82.7 742 165.3 704 247.8 703.5C330.3 703 412.7 740 495.2 759.3C577.7 778.7 660.3 780.3 742.8 768.2C825.3 756 907.7 730 990.2 708C1072.7 686 1155.3 668 1237.8 675.5C1320.3 683 1402.7 716 1485.2 723.3C1567.7 730.7 1650.3 712.3 1732.8 718.5C1815.3 724.7 1897.7 755.3 1938.8 770.7L1980 786L1980 1081L1938.8 1081C1897.7 1081 1815.3 1081 1732.8 1081C1650.3 1081 1567.7 1081 1485.2 1081C1402.7 1081 1320.3 1081 1237.8 1081C1155.3 1081 1072.7 1081 990.2 1081C907.7 1081 825.3 1081 742.8 1081C660.3 1081 577.7 1081 495.2 1081C412.7 1081 330.3 1081 247.8 1081C165.3 1081 82.7 1081 41.3 1081L0 1081Z" fill="#0066ff"></path><path d="M0 756L41.3 765.2C82.7 774.3 165.3 792.7 247.8 796.7C330.3 800.7 412.7 790.3 495.2 788.5C577.7 786.7 660.3 793.3 742.8 787.7C825.3 782 907.7 764 990.2 766.2C1072.7 768.3 1155.3 790.7 1237.8 784.2C1320.3 777.7 1402.7 742.3 1485.2 734.3C1567.7 726.3 1650.3 745.7 1732.8 743.8C1815.3 742 1897.7 719 1938.8 707.5L1980 696L1980 1081L1938.8 1081C1897.7 1081 1815.3 1081 1732.8 1081C1650.3 1081 1567.7 1081 1485.2 1081C1402.7 1081 1320.3 1081 1237.8 1081C1155.3 1081 1072.7 1081 990.2 1081C907.7 1081 825.3 1081 742.8 1081C660.3 1081 577.7 1081 495.2 1081C412.7 1081 330.3 1081 247.8 1081C165.3 1081 82.7 1081 41.3 1081L0 1081Z" fill="#0076ff"></path><path d="M0 792L41.3 803.8C82.7 815.7 165.3 839.3 247.8 849.5C330.3 859.7 412.7 856.3 495.2 845.3C577.7 834.3 660.3 815.7 742.8 820.8C825.3 826 907.7 855 990.2 860.5C1072.7 866 1155.3 848 1237.8 840.8C1320.3 833.7 1402.7 837.3 1485.2 830.3C1567.7 823.3 1650.3 805.7 1732.8 812.5C1815.3 819.3 1897.7 850.7 1938.8 866.3L1980 882L1980 1081L1938.8 1081C1897.7 1081 1815.3 1081 1732.8 1081C1650.3 1081 1567.7 1081 1485.2 1081C1402.7 1081 1320.3 1081 1237.8 1081C1155.3 1081 1072.7 1081 990.2 1081C907.7 1081 825.3 1081 742.8 1081C660.3 1081 577.7 1081 495.2 1081C412.7 1081 330.3 1081 247.8 1081C165.3 1081 82.7 1081 41.3 1081L0 1081Z" fill="#0085ff"></path><path d="M0 942L41.3 934C82.7 926 165.3 910 247.8 897.7C330.3 885.3 412.7 876.7 495.2 876.7C577.7 876.7 660.3 885.3 742.8 888C825.3 890.7 907.7 887.3 990.2 887.5C1072.7 887.7 1155.3 891.3 1237.8 886.7C1320.3 882 1402.7 869 1485.2 859C1567.7 849 1650.3 842 1732.8 840.8C1815.3 839.7 1897.7 844.3 1938.8 846.7L1980 849L1980 1081L1938.8 1081C1897.7 1081 1815.3 1081 1732.8 1081C1650.3 1081 1567.7 1081 1485.2 1081C1402.7 1081 1320.3 1081 1237.8 1081C1155.3 1081 1072.7 1081 990.2 1081C907.7 1081 825.3 1081 742.8 1081C660.3 1081 577.7 1081 495.2 1081C412.7 1081 330.3 1081 247.8 1081C165.3 1081 82.7 1081 41.3 1081L0 1081Z" fill="#1393fe"></path><path d="M0 984L41.3 977.7C82.7 971.3 165.3 958.7 247.8 952C330.3 945.3 412.7 944.7 495.2 941.8C577.7 939 660.3 934 742.8 926.8C825.3 919.7 907.7 910.3 990.2 917.5C1072.7 924.7 1155.3 948.3 1237.8 947.5C1320.3 946.7 1402.7 921.3 1485.2 917.5C1567.7 913.7 1650.3 931.3 1732.8 936.5C1815.3 941.7 1897.7 934.3 1938.8 930.7L1980 927L1980 1081L1938.8 1081C1897.7 1081 1815.3 1081 1732.8 1081C1650.3 1081 1567.7 1081 1485.2 1081C1402.7 1081 1320.3 1081 1237.8 1081C1155.3 1081 1072.7 1081 990.2 1081C907.7 1081 825.3 1081 742.8 1081C660.3 1081 577.7 1081 495.2 1081C412.7 1081 330.3 1081 247.8 1081C165.3 1081 82.7 1081 41.3 1081L0 1081Z" fill="#33a0fb"></path><path d="M0 997L41.3 994.5C82.7 992 165.3 987 247.8 993C330.3 999 412.7 1016 495.2 1023.2C577.7 1030.3 660.3 1027.7 742.8 1017.5C825.3 1007.3 907.7 989.7 990.2 990.3C1072.7 991 1155.3 1010 1237.8 1010.2C1320.3 1010.3 1402.7 991.7 1485.2 983.7C1567.7 975.7 1650.3 978.3 1732.8 980.3C1815.3 982.3 1897.7 983.7 1938.8 984.3L1980 985L1980 1081L1938.8 1081C1897.7 1081 1815.3 1081 1732.8 1081C1650.3 1081 1567.7 1081 1485.2 1081C1402.7 1081 1320.3 1081 1237.8 1081C1155.3 1081 1072.7 1081 990.2 1081C907.7 1081 825.3 1081 742.8 1081C660.3 1081 577.7 1081 495.2 1081C412.7 1081 330.3 1081 247.8 1081C165.3 1081 82.7 1081 41.3 1081L0 1081Z" fill="#4facf7"></path></svg>