<svg id="visual" viewBox="0 0 1920 1080" width="1920" height="1080" xmlns="http://www.w3.org/2000/svg" xmlns:xlink="http://www.w3.org/1999/xlink" version="1.1"><rect x="0" y="0" width="1920" height="1080" fill="#001122"></rect><path d="M0 676L40 658.2C80 640.3 160 604.7 240 582.5C320 560.3 400 551.7 480 577.3C560 603 640 663 720 667.3C800 671.7 880 620.3 960 613.3C1040 606.3 1120 643.7 1200 668.8C1280 694 1360 707 1440 697C1520 687 1600 654 1680 632.7C1760 611.3 1840 601.7 1880 596.8L1920 592L1920 1081L1880 1081C1840 1081 1760 1081 1680 1081C1600 1081 1520 1081 1440 1081C1360 1081 1280 1081 1200 1081C1120 1081 1040 1081 960 1081C880 1081 800 1081 720 1081C640 1081 560 1081 480 1081C400 1081 320 1081 240 1081C160 1081 80 1081 40 1081L0 1081Z" fill="#c62368"></path><path d="M0 759L40 748.3C80 737.7 160 716.3 240 696.2C320 676 400 657 480 673.3C560 689.7 640 741.3 720 753C800 764.7 880 736.3 960 720.8C1040 705.3 1120 702.7 1200 698.8C1280 695 1360 690 1440 684.7C1520 679.3 1600 673.7 1680 691.8C1760 710 1840 752 1880 773L1920 794L1920 1081L1880 1081C1840 1081 1760 1081 1680 1081C1600 1081 1520 1081 1440 1081C1360 1081 1280 1081 1200 1081C1120 1081 1040 1081 960 1081C880 1081 800 1081 720 1081C640 1081 560 1081 480 1081C400 1081 320 1081 240 1081C160 1081 80 1081 40 1081L0 1081Z" fill="#dd3c5d"></path><path d="M0 836L40 820C80 804 160 772 240 773.2C320 774.3 400 808.7 480 819.2C560 829.7 640 816.3 720 799.8C800 783.3 880 763.7 960 748.2C1040 732.7 1120 721.3 1200 737.8C1280 754.3 1360 798.7 1440 819C1520 839.3 1600 835.7 1680 823.5C1760 811.3 1840 790.7 1880 780.3L1920 770L1920 1081L1880 1081C1840 1081 1760 1081 1680 1081C1600 1081 1520 1081 1440 1081C1360 1081 1280 1081 1200 1081C1120 1081 1040 1081 960 1081C880 1081 800 1081 720 1081C640 1081 560 1081 480 1081C400 1081 320 1081 240 1081C160 1081 80 1081 40 1081L0 1081Z" fill="#ed5852"></path><path d="M0 877L40 874C80 871 160 865 240 849.7C320 834.3 400 809.7 480 811.2C560 812.7 640 840.3 720 843.8C800 847.3 880 826.7 960 814.5C1040 802.3 1120 798.7 1200 800C1280 801.3 1360 807.7 1440 824.3C1520 841 1600 868 1680 877C1760 886 1840 877 1880 872.5L1920 868L1920 1081L1880 1081C1840 1081 1760 1081 1680 1081C1600 1081 1520 1081 1440 1081C1360 1081 1280 1081 1200 1081C1120 1081 1040 1081 960 1081C880 1081 800 1081 720 1081C640 1081 560 1081 480 1081C400 1081 320 1081 240 1081C160 1081 80 1081 40 1081L0 1081Z" fill="#f87447"></path><path d="M0 932L40 920.8C80 909.7 160 887.3 240 883.5C320 879.7 400 894.3 480 911.7C560 929 640 949 720 952.7C800 956.3 880 943.7 960 929.5C1040 915.3 1120 899.7 1200 892.2C1280 884.7 1360 885.3 1440 887.7C1520 890 1600 894 1680 905.5C1760 917 1840 936 1880 945.5L1920 955L1920 1081L1880 1081C1840 1081 1760 1081 1680 1081C1600 1081 1520 1081 1440 1081C1360 1081 1280 1081 1200 1081C1120 1081 1040 1081 960 1081C880 1081 800 1081 720 1081C640 1081 560 1081 480 1081C400 1081 320 1081 240 1081C160 1081 80 1081 40 1081L0 1081Z" fill="#fc923f"></path><path d="M0 993L40 997.8C80 1002.7 160 1012.3 240 1015.8C320 1019.3 400 1016.7 480 1009.8C560 1003 640 992 720 987.2C800 982.3 880 983.7 960 986.5C1040 989.3 1120 993.7 1200 987.7C1280 981.7 1360 965.3 1440 962.2C1520 959 1600 969 1680 969.3C1760 969.7 1840 960.3 1880 955.7L1920 951L1920 1081L1880 1081C1840 1081 1760 1081 1680 1081C1600 1081 1520 1081 1440 1081C1360 1081 1280 1081 1200 1081C1120 1081 1040 1081 960 1081C880 1081 800 1081 720 1081C640 1081 560 1081 480 1081C400 1081 320 1081 240 1081C160 1081 80 1081 40 1081L0 1081Z" fill="#fcaf3c"></path></svg>